<svg xmlns="http://www.w3.org/2000/svg" viewBox="0 0 32 32" role="img" aria-labelledby="title desc">
  <title id="title">Repave favicon (dark)</title>
  <desc id="desc">Framed two-slab mark for dark browser chrome.</desc>
  <rect x="1.4" y="1.4" width="29.2" height="29.2" rx="7" fill="#0F172A" stroke="#F59E0B" stroke-width="1.6"/>
  <polygon points="4.09,17.23 17.52,24.98 17.52,29.38 4.09,21.62" fill="#1E293B"/>
  <polygon points="27.91,18.98 17.52,24.98 17.52,29.38 27.91,23.38" fill="#94A3B8"/>
  <polygon points="14.48,11.22 27.91,18.98 17.52,24.98 4.09,17.23" fill="#64748B"/>
  <polygon points="4.09,9.42 17.52,17.17 17.52,21.57 4.09,13.82" fill="#0F172A"/>
  <polygon points="27.91,11.17 17.52,17.17 17.52,21.57 27.91,15.57" fill="#64748B"/>
  <polygon points="14.48,3.42 27.91,11.17 17.52,17.17 4.09,9.42" fill="#475569"/>
  <path d="M 13.96 5.52 C 16.39 8.52, 15.87 11.42, 18.12 14.52" fill="none" stroke="#F59E0B" stroke-width="2.6" stroke-linecap="round" stroke-linejoin="round"/>
</svg>
